<svg width="33" height="32" viewBox="0 0 33 32" fill="none" xmlns="http://www.w3.org/2000/svg">
<g clip-path="url(#clip0_106_5)">
<path d="M12.8664 17.9917H20.047L20.1669 17.6287H12.7465L12.8664 17.9917Z" fill="#FFB926"/>
<path d="M12.53 16.9825C12.56 16.9725 12.5933 16.9625 12.6266 16.9625H20.2868C20.3202 16.9625 20.3535 16.9725 20.3834 16.9825L20.51 16.5995H12.4001L12.5266 16.9825H12.53Z" fill="#FFB926"/>
<path d="M22.1719 9.05243C22.0654 8.78931 21.8022 8.61279 21.5191 8.61279H11.3976C11.1112 8.61279 10.8514 8.78931 10.7448 9.05243L9.6557 12.4263H23.2644L22.1753 9.05243H22.1719Z" fill="#FFB926"/>
<path d="M12.1536 21.4555C12.1736 21.5088 12.1836 21.5654 12.1869 21.6253H20.5966C20.6066 21.4755 20.6665 21.3389 20.7598 21.2323V20.796H12.1536V21.4555Z" fill="#FFB926"/>
<path d="M16.5 0C7.66403 0 0.5 7.16403 0.5 16C0.5 24.836 7.66403 32 16.5 32C25.336 32 32.5 24.836 32.5 16C32.5 7.16403 25.336 0 16.5 0ZM27.3809 13.189H25.0995L26.4684 14.9376C26.7481 15.2939 26.9013 15.7402 26.9013 16.1932V20.2931C26.9013 20.8893 26.6449 21.4221 26.2352 21.7952V23.2873C26.2352 24.0766 25.699 24.7161 25.0329 24.7161C24.3668 24.7161 23.8306 24.0766 23.8306 23.2873V22.3314H21.709C21.6291 22.5013 21.4592 22.6211 21.256 22.6211H11.6507C11.4509 22.6211 11.2777 22.5013 11.1978 22.3314H9.07619V23.2873C9.07619 24.0766 8.53997 24.7161 7.87386 24.7161C7.20774 24.7161 6.67152 24.0766 6.67152 23.2873V21.7952C6.26187 21.4221 6.00541 20.8859 6.00541 20.2931V16.1932C6.00541 15.7402 6.15862 15.2939 6.43838 14.9376L7.80724 13.189H5.61241C5.11615 13.189 4.71316 12.786 4.71316 12.2898C4.71316 11.7935 5.11615 11.3905 5.61241 11.3905H6.94463C7.30433 11.3905 7.62739 11.6037 7.77061 11.9334L8.13031 12.7727L9.47252 8.61615C9.47585 8.60283 9.47918 8.59284 9.48585 8.58285C9.7856 7.80017 10.5516 7.27727 11.3876 7.27727H21.5092C22.3451 7.27727 23.1112 7.8035 23.4109 8.58285C23.4142 8.59284 23.4209 8.60616 23.4242 8.61615L24.7664 12.7694L24.8231 12.8426L25.2127 11.9301C25.3526 11.6003 25.679 11.3872 26.0387 11.3872H27.3709C27.8672 11.3872 28.2702 11.7902 28.2702 12.2864C28.2702 12.7827 27.8672 13.1857 27.3709 13.1857L27.3809 13.189Z" fill="#FFB926"/>
<path d="M9.06286 13.7585L7.4975 15.7602C7.40091 15.8834 7.34763 16.0366 7.34763 16.1965V20.2964C7.34763 20.6861 7.66403 21.0025 8.0537 21.0025H11.1578V20.2964C11.1578 20.02 11.3809 19.7968 11.6574 19.7968H21.2627C21.5391 19.7968 21.7623 20.02 21.7623 20.2964V21.0025H24.8664C25.256 21.0025 25.5724 20.6861 25.5724 20.2964V16.1965C25.5724 16.04 25.5192 15.8834 25.4226 15.7602L23.8572 13.7585H9.06286ZM9.53913 18.3814C8.93963 18.3814 8.45337 17.8951 8.45337 17.2956C8.45337 16.6961 8.93963 16.2098 9.53913 16.2098C10.1386 16.2098 10.6249 16.6961 10.6249 17.2956C10.6249 17.8951 10.1386 18.3814 9.53913 18.3814ZM21.2893 16.3697L20.6032 18.428C20.5566 18.5645 20.4301 18.6545 20.2868 18.6545H12.6266C12.4833 18.6545 12.3568 18.5612 12.3102 18.428L11.6241 16.3697C11.5908 16.2698 11.6074 16.1565 11.6707 16.07C11.734 15.9834 11.8339 15.9301 11.9405 15.9301H20.9729C21.0795 15.9301 21.1794 15.98 21.2427 16.07C21.306 16.1599 21.3226 16.2698 21.2893 16.3697ZM24.46 17.2923C24.46 17.8918 23.9738 18.378 23.3743 18.378C22.7748 18.378 22.2885 17.8918 22.2885 17.2923C22.2885 16.6928 22.7748 16.2065 23.3743 16.2065C23.9738 16.2065 24.46 16.6928 24.46 17.2923Z" fill="#FFB926"/>
</g>
<defs>
<clipPath id="clip0_106_5">
<rect width="32" height="32" fill="white" transform="translate(0.5)"/>
</clipPath>
</defs>
</svg>
